<svg xmlns="http://www.w3.org/2000/svg" xmlns:xlink="http://www.w3.org/1999/xlink" width="88" height="88" viewBox="0 0 88 88">
  <defs>
    <linearGradient id="linear-gradient" x1="0.177" y1="1.06" x2="0.823" y2="-0.06" gradientUnits="objectBoundingBox">
      <stop offset="0" stop-color="#0014ff"/>
      <stop offset="0.363" stop-color="#006dfd"/>
      <stop offset="0.629" stop-color="#00a7fc"/>
      <stop offset="1" stop-color="#00d6ff"/>
    </linearGradient>
    <filter id="Rectangle_2300-2" x="0" y="0" width="88" height="88" filterUnits="userSpaceOnUse">
      <feOffset dy="8" input="SourceAlpha"/>
      <feGaussianBlur stdDeviation="4" result="blur"/>
      <feFlood flood-color="#0065ff" flood-opacity="0.149"/>
      <feComposite operator="in" in2="blur"/>
      <feComposite in="SourceGraphic"/>
    </filter>
  </defs>
  <g id="Group_4285" data-name="Group 4285" transform="translate(-171.409 -1607.809)">
    <g id="Group_19072" data-name="Group 19072">
      <g transform="matrix(1, 0, 0, 1, 171.41, 1607.81)" filter="url(#Rectangle_2300-2)">
        <rect id="Rectangle_2300-2-2" data-name="Rectangle 2300-2" width="64" height="64" rx="16" transform="translate(12 4)" fill="url(#linear-gradient)"/>
      </g>
    </g>
    <g id="Group_20375" data-name="Group 20375" transform="translate(-1264.04 -675.823)">
      <g id="Group_20374" data-name="Group 20374" transform="translate(1461.482 2301.679)">
        <g id="Group_20373" data-name="Group 20373">
          <path id="Path_10063" data-name="Path 10063" d="M1485.49,2307.824a17.948,17.948,0,0,1-17.945,17.747" transform="translate(-1449.557 -2289.662)" fill="none" stroke="#fff" stroke-linecap="round" stroke-linejoin="round" stroke-width="1.5"/>
          <path id="Path_10064" data-name="Path 10064" d="M1473.783,2306.148l5.034.746-.266-5.513" transform="translate(-1443.352 -2296.073)" fill="none" stroke="#fff" stroke-linecap="round" stroke-linejoin="round" stroke-width="1.5"/>
          <path id="Path_10065" data-name="Path 10065" d="M1480.257,2308.587a17.988,17.988,0,0,0-9.057-9.075" transform="translate(-1445.922 -2297.932)" fill="none" stroke="#fff" stroke-linecap="round" stroke-linejoin="round" stroke-width="1.5"/>
          <path id="Path_10066" data-name="Path 10066" d="M1458.529,2316.465a17.947,17.947,0,0,1,17.945-17.745" transform="translate(-1458.529 -2298.719)" fill="none" stroke="#fff" stroke-linecap="round" stroke-linejoin="round" stroke-width="1.5"/>
          <path id="Path_10067" data-name="Path 10067" d="M1463.8,2312.039l-5.034-.745.266,5.513" transform="translate(-1458.295 -2286.209)" fill="none" stroke="#fff" stroke-linecap="round" stroke-linejoin="round" stroke-width="1.5"/>
          <path id="Path_10068" data-name="Path 10068" d="M1459.33,2311.378a18,18,0,0,0,9.057,9.077" transform="translate(-1457.732 -2286.126)" fill="none" stroke="#fff" stroke-linecap="round" stroke-linejoin="round" stroke-width="1.5"/>
          <line id="Line_2947" data-name="Line 2947" y2="14.227" transform="translate(17.957 10.84)" fill="none" stroke="#fff" stroke-linecap="round" stroke-linejoin="round" stroke-width="1.5"/>
          <line id="Line_2948" data-name="Line 2948" x2="14.237" transform="translate(10.848 17.954)" fill="none" stroke="#fff" stroke-linecap="round" stroke-linejoin="round" stroke-width="1.5"/>
        </g>
      </g>
      <rect id="Rectangle_6467" data-name="Rectangle 6467" width="48" height="48" transform="translate(1455.448 2295.631)" fill="none"/>
    </g>
  </g>
</svg>
