<svg xmlns="http://www.w3.org/2000/svg" xmlns:xlink="http://www.w3.org/1999/xlink" width="88" height="88" viewBox="0 0 88 88">
  <defs>
    <linearGradient id="linear-gradient" x1="0.177" y1="1.06" x2="0.823" y2="-0.06" gradientUnits="objectBoundingBox">
      <stop offset="0" stop-color="#0014ff"/>
      <stop offset="0.363" stop-color="#006dfd"/>
      <stop offset="0.629" stop-color="#00a7fc"/>
      <stop offset="1" stop-color="#00d6ff"/>
    </linearGradient>
    <filter id="Rectangle_2300-2" x="0" y="0" width="88" height="88" filterUnits="userSpaceOnUse">
      <feOffset dy="8" input="SourceAlpha"/>
      <feGaussianBlur stdDeviation="4" result="blur"/>
      <feFlood flood-color="#0065ff" flood-opacity="0.149"/>
      <feComposite operator="in" in2="blur"/>
      <feComposite in="SourceGraphic"/>
    </filter>
    <clipPath id="clip-path">
      <rect id="Rectangle_7344" data-name="Rectangle 7344" width="46" height="46" transform="translate(0.426 0.426)" fill="none"/>
    </clipPath>
  </defs>
  <g id="Group_4285" data-name="Group 4285" transform="translate(-171.409 -1607.809)">
    <g id="Group_19072" data-name="Group 19072">
      <g transform="matrix(1, 0, 0, 1, 171.41, 1607.81)" filter="url(#Rectangle_2300-2)">
        <rect id="Rectangle_2300-2-2" data-name="Rectangle 2300-2" width="64" height="64" rx="16" transform="translate(12 4)" fill="url(#linear-gradient)"/>
      </g>
    </g>
    <g id="Group_22687" data-name="Group 22687" transform="translate(192.303 1621.202)">
      <g id="Group_22686" data-name="Group 22686" transform="translate(-0.32 -0.32)" clip-path="url(#clip-path)">
        <path id="Path_14601" data-name="Path 14601" d="M17.533,16.682H14.339a3.856,3.856,0,0,0-2.725,1.129L8.324,21.1a1.927,1.927,0,0,0,1.363,3.29h12.5a1.927,1.927,0,0,0,1.363-3.29l-3.29-3.29A3.856,3.856,0,0,0,17.533,16.682Z" transform="translate(7.491 15.767)" fill="none" stroke="#fff" stroke-linecap="round" stroke-linejoin="round" stroke-width="1.5"/>
        <path id="Path_14602" data-name="Path 14602" d="M7.161,31.6a17.337,17.337,0,1,1,26.36,0" transform="translate(3.085 3.082)" fill="none" stroke="#fff" stroke-linecap="round" stroke-linejoin="round" stroke-width="1.5"/>
        <path id="Path_14603" data-name="Path 14603" d="M8.725,23.535a10.574,10.574,0,1,1,16.724,0" transform="translate(6.339 6.326)" fill="none" stroke="#fff" stroke-linecap="round" stroke-linejoin="round" stroke-width="1.5"/>
        <circle id="Ellipse_2601" data-name="Ellipse 2601" cx="4.303" cy="4.303" r="4.303" transform="translate(19.123 19.123)" fill="none" stroke="#fff" stroke-linecap="round" stroke-linejoin="round" stroke-width="1.5"/>
      </g>
    </g>
  </g>
</svg>
