<svg xmlns="http://www.w3.org/2000/svg" xmlns:xlink="http://www.w3.org/1999/xlink" viewBox="0 0 113.07 150"><defs><style>.cls-1{fill:none;}.cls-2{isolation:isolate;}.cls-3{clip-path:url(#clip-path);}.cls-4{fill:#193554;}.cls-5{mix-blend-mode:luminosity;}</style><clipPath id="clip-path"><rect id="_Rectangle_" data-name="&lt;Rectangle&gt;" class="cls-1" x="-374.24" y="-614.92" width="1920" height="500"/></clipPath></defs><title>VerSprite-AppSec-Offerings-Mobile Security Services</title><g class="cls-2"><g id="Layer_1" data-name="Layer 1"><g id="_Clip_Group_" data-name="&lt;Clip Group&gt;"><g class="cls-3"><path id="_Compound_Path_" data-name="&lt;Compound Path&gt;" class="cls-4" d="M1588.67,101H-411.59V-930.82H1588.67Z"/><image id="_Image_" data-name="&lt;Image&gt;" class="cls-5" width="7360" height="4912" transform="translate(-381.27 -980.51) scale(0.26 0.26)" xlink:href="../../../VerSprite-jan11/images/mobilesec.jpg"/></g></g></g><g id="Layer_3" data-name="Layer 3"><path class="cls-4" d="M84.41,110.17l-1.5.66a8.34,8.34,0,0,1-3.42.7,11.27,11.27,0,0,1-3.79-.71l-.44-.17v9.21H9.11V21.42H75.26V32l.63-.26A9.23,9.23,0,0,1,79.51,31a9.08,9.08,0,0,1,3.7.81l1.21.53q0-9.24,0-18.48C84.4,5.6,78.71,0,70.44,0H14.13C5.56,0,0,5.55,0,14.1Q0,75,0,135.83C0,144.54,5.48,150,14.25,150H69.94c9.07,0,14.48-5.46,14.48-14.6q0-12.61,0-25.23ZM42,142.52a7.9,7.9,0,0,1,.23-15.81A7.9,7.9,0,1,1,42,142.52Z"/><path class="cls-4" d="M113,46.64c-3.32-.33-6.49-.42-9.56-1-8-1.51-15.53-4.48-22.93-7.77a2.33,2.33,0,0,0-2.07,0C68.08,42.23,57.74,46.73,46,46.4a3.09,3.09,0,0,0-.11.46c0,.52-.09,1-.09,1.57.19,11.93,2.44,23.4,7.9,34.09C59,92.91,66.9,100.55,78,104.61a3.35,3.35,0,0,0,2.23.17,73.31,73.31,0,0,0,9.06-4.41C98.2,94.81,103.92,86.61,107.78,77A77.74,77.74,0,0,0,113,53.26C113.15,51,113,48.66,113,46.64Z"/><path class="cls-4" d="M103.08,58.58a54.76,54.76,0,0,1-3.67,16.72c-2.72,6.77-6.75,12.55-13,16.46A51.64,51.64,0,0,1,80,94.88a2.36,2.36,0,0,1-1.57-.12C70.61,91.9,65.07,86.51,61.34,79.2a53.82,53.82,0,0,1-5.56-24c0-.37,0-.74.06-1.11a2.18,2.18,0,0,1,.08-.32c8.24.23,15.52-2.94,22.83-6a1.64,1.64,0,0,1,1.46,0,73.7,73.7,0,0,0,16.15,5.47c2.17.41,4.4.47,6.73.7C103.09,55.35,103.19,57,103.08,58.58Z"/></g></g></svg>