<svg xmlns="http://www.w3.org/2000/svg" width="64" height="64" viewBox="0 0 64 64">
  <g id="Group_20913" data-name="Group 20913" transform="translate(956 -2941)">
    <rect id="Rectangle_2300-2" data-name="Rectangle 2300-2" width="64" height="64" rx="16" transform="translate(-956 2941)" fill="#0a1a65"/>
    <g id="Group_20910" data-name="Group 20910" transform="translate(-340.794 -5.823)">
      <path id="Path_23325" data-name="Path 23325" d="M21.075,37.889C11.094,37.889,3,30.078,3,20.444S11.094,3,21.075,3s18.075,7.811,18.075,17.444" transform="translate(-605.52 2957.467)" fill="none" stroke="#fff" stroke-linecap="round" stroke-linejoin="round" stroke-width="2.5"/>
      <line id="Line_103" data-name="Line 103" x2="34.088" transform="translate(-601.488 2972.097)" fill="none" stroke="#fff" stroke-linecap="round" stroke-linejoin="round" stroke-width="2.5"/>
      <line id="Line_104" data-name="Line 104" x2="17.044" transform="translate(-601.488 2983.725)" fill="none" stroke="#fff" stroke-linecap="round" stroke-linejoin="round" stroke-width="2.5"/>
      <path id="Path_23326" data-name="Path 23326" d="M23.79,20.445a29.185,29.185,0,0,0-4.353-15.39,4.323,4.323,0,0,0-7.36,0,29.385,29.385,0,0,0,0,30.782,4.3,4.3,0,0,0,3.681,2.052" transform="translate(-600.2 2957.466)" fill="none" stroke="#fff" stroke-linecap="round" stroke-linejoin="round" stroke-width="2.5"/>
      <path id="Path_23327" data-name="Path 23327" d="M23.6,20.157V17.536A3.666,3.666,0,0,0,19.941,14a3.6,3.6,0,0,0-3.664,3.536v2.621" transform="translate(-590.563 2969.042)" fill="none" stroke="#fff" stroke-linecap="round" stroke-linejoin="round" stroke-width="2.5"/>
      <rect id="Rectangle_6699" data-name="Rectangle 6699" width="13" height="9" rx="0.974" transform="translate(-577.206 2988.823)" fill="none" stroke="#fff" stroke-linecap="round" stroke-linejoin="round" stroke-width="2.5"/>
    </g>
  </g>
</svg>
