<svg xmlns="http://www.w3.org/2000/svg" xmlns:xlink="http://www.w3.org/1999/xlink" width="88" height="88" viewBox="0 0 88 88">
  <defs>
    <linearGradient id="linear-gradient" x1="0.177" y1="1.06" x2="0.823" y2="-0.06" gradientUnits="objectBoundingBox">
      <stop offset="0" stop-color="#0014ff"/>
      <stop offset="0.363" stop-color="#006dfd"/>
      <stop offset="0.629" stop-color="#00a7fc"/>
      <stop offset="1" stop-color="#00d6ff"/>
    </linearGradient>
    <filter id="Rectangle_2300-2" x="0" y="0" width="88" height="88" filterUnits="userSpaceOnUse">
      <feOffset dy="8" input="SourceAlpha"/>
      <feGaussianBlur stdDeviation="4" result="blur"/>
      <feFlood flood-color="#0065ff" flood-opacity="0.149"/>
      <feComposite operator="in" in2="blur"/>
      <feComposite in="SourceGraphic"/>
    </filter>
    <clipPath id="clip-path">
      <rect id="Rectangle_7341" data-name="Rectangle 7341" width="50" height="50" transform="translate(0.041 0.041)" fill="none"/>
    </clipPath>
  </defs>
  <g id="Group_4285" data-name="Group 4285" transform="translate(-171.409 -1607.809)">
    <g id="Group_19072" data-name="Group 19072">
      <g transform="matrix(1, 0, 0, 1, 171.41, 1607.81)" filter="url(#Rectangle_2300-2)">
        <rect id="Rectangle_2300-2-2" data-name="Rectangle 2300-2" width="64" height="64" rx="16" transform="translate(12 4)" fill="url(#linear-gradient)"/>
      </g>
    </g>
    <g id="Group_22683" data-name="Group 22683" transform="translate(190.367 1619.267)">
      <path id="Path_14595" data-name="Path 14595" d="M21.984,9.861l-8.115,8.115L9,13.108" transform="translate(9.781 10.717)" fill="none" stroke="#fff" stroke-linecap="round" stroke-linejoin="round" stroke-width="1.5"/>
      <g id="Group_22682" data-name="Group 22682">
        <g id="Group_22681" data-name="Group 22681" clip-path="url(#clip-path)">
          <path id="Path_14596" data-name="Path 14596" d="M13.09,8.76l3.13-3.13L13.09,2.5" transform="translate(14.226 2.717)" fill="none" stroke="#fff" stroke-linecap="round" stroke-linejoin="round" stroke-width="1.5"/>
          <path id="Path_14597" data-name="Path 14597" d="M12.54,18.5,9.41,21.63l3.13,3.13" transform="translate(10.227 20.105)" fill="none" stroke="#fff" stroke-linecap="round" stroke-linejoin="round" stroke-width="1.5"/>
          <path id="Path_14598" data-name="Path 14598" d="M26.3,6.371A16.677,16.677,0,0,1,9.74,34.125" transform="translate(10.585 6.924)" fill="none" stroke="#fff" stroke-linecap="round" stroke-linejoin="round" stroke-width="1.5"/>
          <path id="Path_14599" data-name="Path 14599" d="M8.7,32.3A16.679,16.679,0,0,1,25.41,4.689" transform="translate(4.347 4.347)" fill="none" stroke="#fff" stroke-linecap="round" stroke-linejoin="round" stroke-width="1.5"/>
        </g>
      </g>
    </g>
  </g>
</svg>
